<?xml version="1.0" encoding="UTF-8" standalone="no"?>
<!DOCTYPE svg PUBLIC "-//W3C//DTD SVG 1.1//EN" "http://www.w3.org/Graphics/SVG/1.1/DTD/svg11.dtd">
<svg width="100%" height="100%" viewBox="0 0 275 202" version="1.1" xmlns="http://www.w3.org/2000/svg" xmlns:xlink="http://www.w3.org/1999/xlink" xml:space="preserve" xmlns:serif="http://www.serif.com/" style="fill-rule:evenodd;clip-rule:evenodd;stroke-linejoin:round;stroke-miterlimit:2;">
    <g>
        <rect x="0" y="110.805" width="274.529" height="91.195" style="fill:rgb(239,59,37);fill-rule:nonzero;"/>
        <path d="M18.14,2.107C18.235,0.757 18.494,0.469 19.615,0.413C19.886,0.4 20.159,0.411 20.431,0.411C31.317,0.411 42.203,0.409 53.088,0.412C58.139,0.413 62.835,3.373 64.747,8.13C65.676,10.444 66.186,12.776 65.991,15.24C65.78,17.904 64.836,20.332 63.148,22.403C61.684,24.201 59.978,25.726 57.748,26.589C56.307,27.147 54.842,27.563 53.307,27.594C50.541,27.65 47.773,27.592 45.007,27.646C43.918,27.668 43.048,27.239 42.338,26.531C39.897,24.1 37.503,21.623 35.095,19.16C34.97,19.032 34.872,18.877 34.777,18.754C34.827,17.585 35.127,17.194 36.1,17.067C36.412,17.027 36.734,17.063 37.052,17.063C41.996,17.063 46.939,17.064 51.883,17.063C52.607,17.063 53.32,17.06 53.988,16.678C55.23,15.967 55.721,14.806 55.407,13.188C55.205,12.147 53.946,11.094 52.764,11C52.358,10.967 51.949,10.979 51.541,10.979C44.102,10.978 36.664,10.955 29.225,10.996C27.619,11.005 26.367,10.487 25.261,9.329C23.226,7.197 21.114,5.138 19.036,3.047C18.719,2.727 18.414,2.395 18.14,2.107Z" style="fill:rgb(239,59,37);fill-rule:nonzero;"/>
        <path d="M139.512,14.126C139.633,10.825 136.939,7.772 133.228,7.745C129.376,7.717 126.805,10.563 126.806,14.13C126.807,17.636 129.442,20.483 133.326,20.464C137.273,20.446 139.615,17.076 139.512,14.126ZM133.35,24.088C130.14,24.186 127.557,23.017 125.439,20.896C122.926,18.38 121.752,14.125 123.385,10.401C124.911,6.922 127.499,4.853 131.276,4.156C134.995,3.47 138.187,4.447 140.807,7.05C145.576,11.789 144.336,19.437 138.615,22.72C136.927,23.689 135.156,24.216 133.35,24.088Z" style="fill:rgb(239,60,37);fill-rule:nonzero;"/>
        <path d="M114.471,14.142C114.629,10.452 111.251,7.706 108.381,7.699C104.859,7.69 101.687,10.403 101.769,14.1C101.851,17.801 104.366,20.487 108.404,20.441C112.239,20.397 114.534,17.195 114.471,14.142ZM118.629,13.115C118.529,18.077 116.69,20.86 113.41,22.804C109.735,24.983 104.156,24.459 100.929,21.454C95.858,16.734 96.662,8.907 102.749,5.359C106.689,3.063 111.451,3.426 115.011,6.371C117.411,8.357 118.734,10.982 118.629,13.115Z" style="fill:rgb(239,61,37);fill-rule:nonzero;"/>
        <path d="M175.264,8.234C175.046,12.29 175.129,19.047 175.434,20.194C176.288,20.194 177.185,20.24 178.077,20.184C179.937,20.067 181.566,19.473 182.807,17.957C185.322,14.887 184.208,9.906 180.166,8.546C178.575,8.011 176.951,8.365 175.264,8.234ZM171.304,4.54C171.582,4.513 171.801,4.472 172.021,4.472C174.24,4.469 176.459,4.418 178.676,4.486C183.48,4.635 187.2,7.604 188.107,12.4C189.102,17.661 185.97,22.006 181.515,23.413C180.632,23.692 179.663,23.778 178.729,23.803C176.647,23.859 174.564,23.821 172.481,23.821L171.306,23.821C171.014,22.67 171.006,5.753 171.304,4.54Z" style="fill:rgb(239,60,37);fill-rule:nonzero;"/>
        <path d="M80.498,19.983C81.628,19.983 82.623,20.019 83.614,19.976C85.679,19.885 87.329,19.008 88.443,17.239C90.025,14.728 89.489,11.686 87.628,9.821C85.563,7.752 83.035,7.984 80.498,8.086L80.498,19.983ZM76.455,4.517C79.474,4.517 82.451,4.209 85.336,4.591C89.38,5.126 92.076,7.644 93.202,11.609C94.239,15.264 92.938,19.567 89.319,22.051C87.907,23.02 86.342,23.633 84.688,23.721C81.985,23.864 79.268,23.76 76.572,23.76C76.299,22.775 76.204,7.018 76.455,4.517Z" style="fill:rgb(239,59,37);fill-rule:nonzero;"/>
        <path d="M160.168,11.531C160.187,11.269 160.221,10.998 160.22,10.727C160.218,9.256 159.354,8.168 157.905,8.065C156.431,7.959 154.944,8.041 153.448,8.041L153.448,13.18C154.736,13.18 155.958,13.115 157.168,13.198C158.5,13.289 159.437,12.775 160.168,11.531ZM153.373,17.05L153.373,23.399C152.401,23.882 150.411,23.905 149.333,23.463L149.333,4.547C149.642,4.512 149.942,4.449 150.242,4.448C152.826,4.441 155.41,4.478 157.993,4.435C161.005,4.384 164.143,6.515 164.441,10.417C164.621,12.783 163.564,14.696 161.65,16.113C161.543,16.192 161.412,16.237 161.299,16.31C161.223,16.358 161.161,16.427 161.021,16.548C162.294,18.799 163.566,21.047 164.829,23.281C164.208,23.848 164.208,23.848 160.781,23.769C159.368,21.686 158.329,19.287 156.921,17.05L153.373,17.05Z" style="fill:rgb(239,60,36);fill-rule:nonzero;"/>
        <path d="M237.985,15.946C237.857,18.476 238.065,20.954 237.855,23.48C236.553,23.944 235.298,23.634 234.003,23.716C233.906,23.425 233.755,23.185 233.755,22.944C233.742,17.048 233.744,11.152 233.751,5.256C233.751,5.042 233.843,4.828 233.911,4.533L237.788,4.533C238.123,5.741 237.896,7.005 237.937,8.245C237.979,9.467 237.947,10.692 237.947,11.91C238.954,12.14 243.581,12.197 246.182,12.009L246.182,4.544C247.583,4.376 248.868,4.424 250.216,4.503L250.216,23.482C248.943,23.947 247.614,23.731 246.199,23.589L246.199,15.946L237.985,15.946Z" style="fill:rgb(239,62,38);fill-rule:nonzero;"/>
        <path d="M200.912,9.221C200.084,11.452 199.334,13.474 198.534,15.631C199.419,15.631 200.181,15.65 200.942,15.626C201.687,15.602 202.447,15.735 203.247,15.513C202.475,13.435 201.731,11.428 200.912,9.221ZM198.687,4.471L203.166,4.471C204.428,7.645 205.724,10.833 206.965,14.042C208.187,17.204 209.493,20.337 210.652,23.551C209.856,23.938 209.17,23.76 208.51,23.789C207.836,23.819 207.161,23.796 206.395,23.796C205.819,22.249 205.261,20.749 204.689,19.212L197.244,19.212C196.669,20.691 196.077,22.221 195.491,23.73C194.118,23.73 192.859,23.74 191.601,23.712C191.487,23.71 191.377,23.461 191.256,23.316C193.73,17.043 196.194,10.795 198.687,4.471Z" style="fill:rgb(239,60,37);fill-rule:nonzero;"/>
        <path d="M227.447,6.693C226.684,7.446 225.978,8.142 225.163,8.945C224.831,8.766 224.483,8.606 224.164,8.401C223.062,7.697 221.9,7.459 220.585,7.659C219.719,7.791 219.244,8.321 218.685,8.941L218.685,10.244C219.453,11.402 220.696,11.71 221.889,12.092C223.294,12.542 224.74,12.851 226.011,13.691C227.817,14.885 228.523,16.525 228.267,18.629C227.883,21.787 225.6,23.845 222.401,24.095C220.63,24.233 218.917,24.175 217.254,23.527C215.894,22.998 214.68,22.26 213.707,20.927C214.463,20.145 215.203,19.38 215.891,18.669C216.537,18.634 216.762,19.1 217.12,19.35C218.674,20.436 220.357,20.902 222.212,20.293C222.662,20.145 223.118,19.873 223.451,19.538C224.54,18.44 224.317,17.125 223.067,16.529C222.102,16.068 221.09,15.692 220.074,15.356C218.795,14.932 217.509,14.577 216.393,13.748C213.445,11.558 213.928,7.256 216.577,5.261C219.539,3.03 224.689,3.705 227.169,6.225C227.26,6.318 227.307,6.453 227.447,6.693Z" style="fill:rgb(239,61,37);fill-rule:nonzero;"/>
        <path d="M21.226,144.483C21.321,143.133 21.58,142.845 22.701,142.789C22.972,142.776 23.245,142.787 23.517,142.787C34.403,142.787 45.288,142.785 56.174,142.788C61.225,142.789 65.921,145.749 67.833,150.507C68.762,152.819 69.272,155.152 69.077,157.616C68.866,160.28 67.922,162.708 66.234,164.779C64.769,166.577 63.063,168.102 60.834,168.965C59.393,169.524 57.928,169.939 56.393,169.97C53.627,170.026 50.859,169.969 48.093,170.023C47.004,170.043 46.134,169.614 45.424,168.907C42.983,166.477 40.589,163.999 38.181,161.536C38.056,161.408 37.958,161.253 37.863,161.131C37.913,159.96 38.213,159.569 39.186,159.443C39.498,159.402 39.82,159.439 40.138,159.439C45.082,159.44 50.025,159.44 54.969,159.439C55.693,159.439 56.406,159.437 57.074,159.054C58.316,158.344 58.807,157.183 58.493,155.565C58.291,154.523 57.031,153.47 55.85,153.376C55.444,153.344 55.035,153.355 54.626,153.355C47.188,153.354 39.75,153.331 32.311,153.372C30.705,153.381 29.452,152.863 28.347,151.705C26.312,149.572 24.2,147.514 22.122,145.423C21.805,145.103 21.5,144.771 21.226,144.483Z" style="fill:white;fill-rule:nonzero;"/>
        <path d="M142.598,156.502C142.718,153.201 140.025,150.149 136.313,150.121C132.462,150.094 129.891,152.94 129.892,156.506C129.893,160.012 132.528,162.859 136.412,162.841C140.359,162.822 142.701,159.452 142.598,156.502ZM136.436,166.465C133.226,166.562 130.643,165.393 128.524,163.272C126.012,160.756 124.837,156.501 126.471,152.776C127.997,149.298 130.585,147.229 134.362,146.532C138.081,145.847 141.273,146.823 143.892,149.426C148.661,154.165 147.422,161.813 141.701,165.096C140.013,166.065 138.242,166.592 136.436,166.465Z" style="fill:white;fill-rule:nonzero;"/>
        <path d="M117.557,156.518C117.714,152.828 114.337,150.082 111.467,150.074C107.945,150.066 104.772,152.779 104.854,156.476C104.937,160.177 107.452,162.863 111.49,162.817C115.325,162.773 117.62,159.57 117.557,156.518ZM121.714,155.491C121.615,160.453 119.775,163.236 116.496,165.18C112.82,167.359 107.242,166.834 104.015,163.83C98.944,159.11 99.748,151.283 105.835,147.735C109.775,145.439 114.537,145.802 118.097,148.747C120.497,150.733 121.819,153.359 121.714,155.491Z" style="fill:white;fill-rule:nonzero;"/>
        <path d="M178.349,150.609C178.131,154.666 178.215,161.423 178.52,162.569C179.374,162.569 180.271,162.616 181.163,162.56C183.023,162.443 184.652,161.849 185.893,160.333C188.408,157.263 187.294,152.281 183.251,150.922C181.661,150.387 180.036,150.74 178.349,150.609ZM174.39,146.916C174.667,146.889 174.887,146.848 175.107,146.848C177.326,146.845 179.545,146.794 181.762,146.862C186.566,147.011 190.285,149.981 191.193,154.776C192.188,160.036 189.056,164.382 184.601,165.789C183.717,166.067 182.749,166.154 181.814,166.18C179.733,166.235 177.65,166.197 175.567,166.197L174.392,166.197C174.1,165.046 174.092,148.128 174.39,146.916Z" style="fill:white;fill-rule:nonzero;"/>
        <path d="M83.583,162.359C84.714,162.359 85.709,162.395 86.7,162.352C88.765,162.261 90.414,161.384 91.529,159.615C93.111,157.105 92.574,154.062 90.714,152.197C88.648,150.127 86.121,150.36 83.583,150.462L83.583,162.359ZM79.541,146.893C82.559,146.893 85.536,146.585 88.422,146.967C92.466,147.502 95.162,150.02 96.288,153.985C97.325,157.64 96.023,161.943 92.404,164.428C90.993,165.397 89.428,166.009 87.774,166.097C85.071,166.24 82.354,166.136 79.658,166.136C79.385,165.151 79.29,149.394 79.541,146.893Z" style="fill:white;fill-rule:nonzero;"/>
        <path d="M163.254,153.907C163.272,153.645 163.307,153.373 163.306,153.103C163.304,151.633 162.44,150.544 160.991,150.441C159.517,150.335 158.03,150.417 156.534,150.417L156.534,155.556C157.822,155.556 159.042,155.491 160.254,155.573C161.585,155.665 162.523,155.151 163.254,153.907ZM156.458,159.426L156.458,165.775C155.487,166.258 153.497,166.281 152.419,165.839L152.419,146.923C152.728,146.888 153.028,146.825 153.328,146.824C155.911,146.817 158.496,146.854 161.079,146.811C164.091,146.761 167.229,148.892 167.526,152.793C167.707,155.158 166.65,157.072 164.736,158.488C164.629,158.567 164.498,158.613 164.384,158.686C164.309,158.734 164.247,158.803 164.107,158.925C165.379,161.176 166.651,163.424 167.915,165.656C167.294,166.224 167.294,166.224 163.867,166.145C162.454,164.062 161.415,161.663 160.007,159.426L156.458,159.426Z" style="fill:white;fill-rule:nonzero;"/>
        <path d="M241.071,158.321C240.943,160.852 241.151,163.33 240.94,165.856C239.639,166.32 238.384,166.011 237.089,166.093C236.992,165.801 236.841,165.561 236.841,165.32C236.828,159.424 236.829,153.528 236.836,147.632C236.837,147.418 236.929,147.204 236.997,146.909L240.874,146.909C241.208,148.117 240.981,149.38 241.023,150.62C241.064,151.844 241.033,153.068 241.033,154.286C242.04,154.516 246.666,154.573 249.268,154.385L249.268,146.92C250.669,146.752 251.954,146.801 253.302,146.879L253.302,165.858C252.029,166.323 250.7,166.108 249.285,165.966L249.285,158.321L241.071,158.321Z" style="fill:white;fill-rule:nonzero;"/>
        <path d="M203.998,151.598C203.17,153.828 202.42,155.85 201.62,158.007C202.505,158.007 203.267,158.026 204.028,158.002C204.773,157.978 205.533,158.111 206.333,157.889C205.561,155.811 204.817,153.805 203.998,151.598ZM201.773,146.847L206.252,146.847C207.514,150.021 208.81,153.209 210.05,156.418C211.273,159.58 212.579,162.713 213.738,165.928C212.942,166.314 212.256,166.137 211.596,166.165C210.922,166.194 210.247,166.172 209.481,166.172C208.905,164.625 208.347,163.125 207.775,161.588L200.329,161.588C199.755,163.067 199.162,164.597 198.577,166.106C197.203,166.106 195.945,166.116 194.686,166.088C194.572,166.086 194.463,165.837 194.342,165.692C196.816,159.419 199.28,153.171 201.773,146.847Z" style="fill:white;fill-rule:nonzero;"/>
        <path d="M230.533,149.069C229.77,149.821 229.063,150.518 228.249,151.321C227.916,151.142 227.569,150.982 227.249,150.777C226.148,150.072 224.986,149.835 223.671,150.035C222.805,150.167 222.33,150.696 221.771,151.317L221.771,152.62C222.539,153.777 223.782,154.085 224.974,154.468C226.38,154.918 227.826,155.227 229.096,156.067C230.903,157.261 231.609,158.901 231.353,161.006C230.969,164.163 228.686,166.221 225.487,166.471C223.715,166.609 222.003,166.551 220.339,165.903C218.98,165.373 217.766,164.636 216.792,163.303C217.548,162.521 218.289,161.756 218.977,161.044C219.622,161.01 219.848,161.477 220.205,161.726C221.76,162.813 223.443,163.278 225.297,162.669C225.748,162.522 226.204,162.249 226.537,161.913C227.625,160.817 227.403,159.501 226.153,158.904C225.188,158.444 224.176,158.068 223.16,157.732C221.88,157.308 220.594,156.953 219.479,156.124C216.531,153.934 217.014,149.632 219.662,147.637C222.624,145.406 227.775,146.081 230.255,148.601C230.346,148.693 230.393,148.829 230.533,149.069Z" style="fill:white;fill-rule:nonzero;"/>
    </g>
</svg>
